<?xml version="1.0"?>
<svg xmlns="http://www.w3.org/2000/svg" id="Outline" viewBox="0 0 64 64" width="512" height="512"><path d="M56.00488,57l.02637-5.46289,4.82129-3.21484a2.0028,2.0028,0,0,0,.68066-2.55957L60.376,43.44824a1.99958,1.99958,0,0,0-2.6836-.89551l-1.6582.82911V40a3.00328,3.00328,0,0,0-3-3h-7a3.00328,3.00328,0,0,0-3,3V56.75507a2.40773,2.40773,0,0,1-.33984-.16034l-1.2793-.85352A4.40276,4.40276,0,0,0,38.96582,55H38V36.58008l5.6748-3.24219a2.002,2.002,0,0,0,.79688-2.63086l-1.166-2.33008a2.00794,2.00794,0,0,0-2.53125-.96386L38,28.52344V5a3.00328,3.00328,0,0,0-3-3H28a3.00328,3.00328,0,0,0-3,3V17.38184l-1.6582-.82911a2.0019,2.0019,0,0,0-2.6836.89454L19.5,19.7627a2.002,2.002,0,0,0,.67969,2.55859L25,25.53516V53H23.707A4.432,4.432,0,0,0,21,53.93689V33a3.00328,3.00328,0,0,0-3-3H11a3.00328,3.00328,0,0,0-3,3v4.38184l-1.6582-.82911a2.003,2.003,0,0,0-2.6836.89454L2.5,39.7627a2.002,2.002,0,0,0,.67969,2.55859L8,45.53516V57H2v2H17.293a4.43886,4.43886,0,0,0,3.53223-1.76562l.95019-1.26954A2.42828,2.42828,0,0,1,23.707,55h3.87891a2.39858,2.39858,0,0,1,1.707.707A4.38486,4.38486,0,0,0,32.41406,57h6.55176a2.414,2.414,0,0,1,1.33984.40527l1.2793.85352A4.40276,4.40276,0,0,0,44.03418,59H62V57ZM17.293,57H10V50h3V48H10V45.53516a1.99687,1.99687,0,0,0-.89062-1.66407L4.28906,40.65723,5.44727,38.3418l1.65918.8291A1.99973,1.99973,0,0,0,10,37.38184V33a1.00067,1.00067,0,0,1,1-1h7a1.00067,1.00067,0,0,1,1,1v3H14v2h5V56.27063A2.41688,2.41688,0,0,1,17.293,57ZM30.707,54.293A4.38486,4.38486,0,0,0,27.58594,53H27V25.53516a1.99687,1.99687,0,0,0-.89062-1.66407l-4.82032-3.21386,1.15821-2.31543,1.65918.8291A1.99973,1.99973,0,0,0,27,17.38184V11h4V9H27V5a1.00067,1.00067,0,0,1,1-1h7a1.00067,1.00067,0,0,1,1,1V19H33v2h3v7.52344a2.00024,2.00024,0,0,0,2.74219,1.85644l2.77441-1.10937,1.166,2.331-5.67383,3.24219A2.00217,2.00217,0,0,0,36,36.58008V55H32.41406A2.39858,2.39858,0,0,1,30.707,54.293ZM46.03418,39h7a1.00067,1.00067,0,0,1,1,1v3.38184a1.99973,1.99973,0,0,0,2.89355,1.78906l1.65821-.8291,1.1582,2.31543-4.82129,3.21582a1.99486,1.99486,0,0,0-.8916,1.65429L54.02411,53H50v2h4.01447l-.00965,2H45.03418V45H48V43H45.03418V40A1.00067,1.00067,0,0,1,46.03418,39Z"/></svg>
