<?xml version="1.0" encoding="utf-8"?>
<!-- Svg Vector Icons : http://www.onlinewebfonts.com/icon -->
<!DOCTYPE svg PUBLIC "-//W3C//DTD SVG 1.1//EN" "http://www.w3.org/Graphics/SVG/1.1/DTD/svg11.dtd">
<svg version="1.1" xmlns="http://www.w3.org/2000/svg" xmlns:xlink="http://www.w3.org/1999/xlink" x="0px" y="0px" viewBox="0 0 1000 1000" enable-background="new 0 0 1000 1000" xml:space="preserve">
<metadata> Svg Vector Icons : http://www.onlinewebfonts.com/icon </metadata>
<g><g transform="translate(0.000000,512.000000) scale(0.100000,-0.100000)"><path d="M1046.5,4992.8c-266.6-84.4-370.1-274.3-370.1-678.9c0-234,34.5-414.2,134.2-713.4c193.7-586.8,581.1-1212,1026-1658.8c561.9-567.6,1221.6-872.6,1898.6-880.2c140,0,255.1-9.6,262.7-21.1c7.7-9.6,15.3-49.9,15.3-86.3v-67.1l-159.2-1.9C3232.7,873.5,2761,422.8,2490.6-421c-166.9-519.7-241.6-964.6-241.6-1434.5c0-1043.3,322.2-1948.4,820.8-2307.1c69-49.9,205.2-170.7,299.2-270.4c166.8-170.7,385.5-347.1,431.5-347.1c13.4,0,21.1,63.3,21.1,191.8v191.8h67.1c209,0,621.3,138.1,891.8,299.2c772.8,460.3,1323.2,1256.1,1505.4,2174.7c17.3,90.1,42.2,210.9,55.6,268.5c44.1,197.5-9.6,728.7-94,941.6c-9.6,26.8,13.4,32.6,157.3,42.2c345.2,25,640.5,147.7,813.1,333.7c297.2,326,377.8,813.1,234,1415.3c-7.7,36.4,1.9,38.4,381.6,38.4c433.4,0,594.5,23,863,126.6c291.5,113.1,485.2,287.7,575.3,519.7c61.4,155.3,69,427.7,19.2,623.3c-138.1,542.7-546.6,1068.2-1083.5,1392.3l-113.2,67.1l82.5,13.4c44.1,7.7,193.7,7.7,333.7,0c303-15.3,358.6,1.9,395,122.7c26.9,88.2,0,159.2-84.4,220.5c-51.8,38.4-78.6,40.3-450.7,40.3c-444.9,0-542.7-17.3-780.5-132.3c-109.3-53.7-164.9-67.1-303-76.7c-92-5.8-178.3-13.4-189.9-17.3c-21.1-3.8-105.5,255.1-109.3,333.7c-1.9,19.2,40.3,53.7,109.3,88.2c195.6,103.6,372,147.7,707.6,178.3c214.8,19.2,276.1,46,312.6,134.2c30.7,76.7,7.7,163-61.4,220.5c-69,57.5-174.5,63.3-466,19.2c-402.7-61.4-709.6-182.2-899.4-354.8c-143.8-132.3-147.6-161.1-61.3-483.3c38.3-143.8,69-268.5,69-278.1s-51.8-53.7-115.1-97.8c-264.6-187.9-489-560-563.8-943.5c-24.9-120.8-26.8-122.7-47.9-69c-55.6,136.2-245.5,496.7-341.3,644.4c-159.2,243.6-262.7,372.1-475.6,592.6c-329.9,341.4-629,561.9-1016.4,749.8c-642.4,310.7-1229.3,352.9-1516.9,107.4l-74.8-63.3l-153.4,44.1C1886.5,4987.1,1259.4,5058,1046.5,4992.8z M1702.4,4588.2c840-124.7,1756.7-535,2347.3-1049c281.9-245.5,569.6-625.2,703.8-926.3c26.8-61.4,46-111.2,42.2-113.1c-65.2-38.4-197.5-128.5-260.8-180.3c-178.4-145.7-385.5-466-456.4-703.8c-51.8-176.4-34.5-168.8-352.9-157.3c-301.1,11.5-460.3,44.1-723,147.7C2235.5,1911,1497.2,2779.8,1175,3750.1c-40.3,124.7-84.4,291.5-95.9,372.1c-28.8,174.5-11.5,423.8,32.6,466C1148.1,4626.5,1445.4,4626.5,1702.4,4588.2z M3447.5,4588.2c713.4-151.5,1482.4-761.3,1938.8-1538c57.5-97.8,126.6-224.4,151.5-283.8l47.9-105.5h-140c-74.8,0-168.8-5.7-205.2-11.5l-67.1-11.5l-78.6,170.7c-320.3,677-928.2,1254.2-1760.5,1666.5l-285.7,141.9H3181C3253.8,4616.9,3372.7,4603.5,3447.5,4588.2z M7574.5,3619.7c44.1-9.6,130.4-38.4,191.8-61.4l111.2-42.2l-101.6-15.4c-136.2-21.1-234-72.9-324.1-176.4c-95.9-109.3-128.5-220.5-117-393.1c32.6-462.2,550.4-809.3,1026-688.5c184.1,46,304.9,249.3,289.6,487.1c-1.9,57.5,0,103.5,5.7,103.5c23,0,176.4-293.4,222.5-425.7c95.9-280,55.6-560-97.8-677c-374-285.7-1288.7-314.5-1823.8-59.5c-372.1,176.4-565.7,477.5-565.7,878.3c0,270.4,78.6,504.4,241.6,728.7c117,157.3,322.2,297.3,500.5,339.4C7233.2,3640.8,7476.7,3642.7,7574.5,3619.7z M5800.6,2231.3c207.1-55.6,243.6-82.5,304.9-232.1c120.8-291.5,351-521.6,682.7-682.7l193.7-94l49.9-140c103.5-297.3,130.4-529.3,82.5-755.6c-92-429.6-327.9-600.2-836.1-602.2c-358.6-1.9-740.2,92.1-1108.5,274.2c-130.4,63.3-186,105.5-320.2,245.5C4674.9,428.6,4485,697.1,4439,825.6c-44.1,126.6-51.8,421.9-15.3,569.6c86.3,347.1,301.1,625.2,588.7,765.2c88.2,42.2,205.2,84.4,257,95.9C5392.1,2281.1,5660.6,2267.7,5800.6,2231.3z M4151.3,465c19.2-7.7,82.5-82.5,141.9-166.8c155.3-222.5,467.9-531.2,621.3-615.6c164.9-88.2,425.7-189.9,661.6-257l191.8-53.7l61.4-124.6c76.7-153.4,120.8-320.3,120.8-454.5c0-95.9-1.9-101.6-42.2-94C4947.2-1094.1,4299-781.5,3794.6-281C3572.2-60.4,3345.9,252.2,3367,307.8c11.5,32.6,218.6,141.9,312.6,164.9C3760.1,493.8,4097.6,488.1,4151.3,465z M3111.9-58.5c0-38.4,237.8-331.8,395.1-490.9c525.5-523.6,1302.1-920.5,2146-1095c138.1-28.8,257-57.5,264.6-65.2c28.8-26.9-163-701.9-214.8-753.7c-15.3-17.2-255,23-471.7,78.6c-650.1,166.8-1409.5,535-1879.4,912.8c-180.3,143.8-327.9,293.4-454.5,458.3c-105.5,140-113.1,159.2-103.6,224.4c30.7,191.8,251.2,746,297.2,746C3102.3-43.2,3111.9-50.8,3111.9-58.5z M2780.2-1483.4c504.4-538.9,1543.8-1093.1,2441.3-1302.2c99.7-23,207.1-47.9,235.9-55.6l55.6-11.5l-92.1-124.6c-49.9-69-128.5-170.7-176.4-228.2l-86.3-101.6l-145.8,13.4c-383.5,32.6-786.3,117-1121.9,234c-492.9,170.7-1016.4,500.5-1187.1,749.8c-53.7,74.8-53.7,76.7-53.7,408.5c-1.9,293.4,11.5,515.9,32.6,515.9C2686.2-1385.6,2730.3-1429.7,2780.2-1483.4z M2954.7-3040.6c404.6-268.5,995.3-489,1566.8-584.9l211-36.4l-113.1-72.9c-143.8-92-306.8-164.9-490.9-222.5c-166.9-51.8-454.5-61.4-588.7-21.1c-195.6,59.5-406.6,255-552.3,512c-107.4,189.9-234,544.6-189.9,525.5C2807-2944.7,2877.9-2990.8,2954.7-3040.6z"/></g></g>
</svg>