<svg xmlns="http://www.w3.org/2000/svg" viewBox="0 0 165 150"><defs><style>.cls-1{fill:#fbb800;}.cls-1,.cls-2,.cls-3{stroke:#373731;stroke-linecap:round;stroke-linejoin:round;}.cls-1,.cls-3{stroke-width:5.53px;}.cls-2,.cls-3{fill:#f28c00;}.cls-2{stroke-width:7.37px;}</style></defs><title>Updated Ingredients and Botanicals</title><g id="Icons"><path class="cls-1" d="M125.17,127.65a15.55,15.55,0,0,0,9.32,15.72c6.77,2.89,14-3.5,15.09-10.16.93-5.46-1.29-11.86-4-16.5-3-5-6.21-10.13-7.08-15.8a1,1,0,0,0-2-.21,104,104,0,0,1-4.79,11c-2.16,4.28-4.64,8.45-5.93,13.06A18.28,18.28,0,0,0,125.17,127.65Z"/><polygon class="cls-2" points="159.41 30.8 148.5 50.48 124.57 50.49 112.6 29.77 124.56 9.05 148.49 9.04 159.41 30.8"/><polygon class="cls-1" points="161.5 69.12 148.5 91.94 124.57 91.95 112.6 71.23 124.56 50.51 148.49 50.5 161.5 69.12"/><polygon class="cls-3" points="88.62 71.34 76.66 92.06 52.74 92.07 40.77 71.35 52.72 50.63 76.65 50.62 88.62 71.34"/><polygon class="cls-1" points="124.51 50.59 112.56 71.31 88.63 71.32 76.66 50.6 88.62 29.88 112.54 29.87 124.51 50.59"/><polygon class="cls-1" points="52.66 50.59 40.7 71.31 16.77 71.32 4.8 50.6 14.67 29.88 40.69 29.87 52.66 50.59"/><polygon class="cls-1" points="88.62 29.88 76.66 50.6 52.73 50.61 40.76 29.89 51.67 10.21 76.65 9.16 88.62 29.88"/><polygon class="cls-1" points="88.62 112.8 78.75 131.44 52.73 133.54 40.76 112.82 52.72 92.09 76.65 92.09 88.62 112.8"/><polygon class="cls-3" points="52.34 91.52 40.38 112.24 16.46 112.25 3.44 93.62 16.44 70.81 40.37 70.8 52.34 91.52"/><polygon class="cls-2" points="124.52 92.05 112.56 112.77 88.63 112.78 76.66 92.06 88.62 71.34 112.55 71.33 124.52 92.05"/></g></svg>